# xmcd
#
# Track frame offsets:
#	150
#	15782
#	33270
#	48095
#	63302
#	77350
#
# Disc length: 1317 seconds
#
# Revision: 1
# Processed by: cddbd v1.5.2PL0 Copyright (c) Steve Scherf et al.
# Submitted via: audiograbber 1.83.01
#
DISCID=30052306
DTITLE=Lidell Townsell - Nu Nu - CD Single
DYEAR=1900
DGENRE=R&B
TTITLE0=Nu Nu - Nu Club Radio Edit
TTITLE1=Nu Nu - Radio Mix
TTITLE2=Nu Nu - Radio Mix W O Rap
TTITLE3=Nu Nu - Radio Apella
TTITLE4=Nu Nu - Radio Apella  W O Rap
TTITLE5=Nu Nu - Nu Club Mix
EXTD=
EXTT0=
EXTT1=
EXTT2=
EXTT3=
EXTT4=
EXTT5=
PLAYORDER=
